<svg width="190" height="174" viewBox="0 0 190 174" fill="none" xmlns="http://www.w3.org/2000/svg">
<path d="M170 87C170 132.839 132.839 170 87 170C41.1592 170 4 132.839 4 87C4 41.1592 41.1592 4 87 4C132.839 4 170 41.1592 170 87V87Z" fill="#4CAF50"/>
<path d="M87.0007 174C39.0319 174 0 134.97 0 87.0007C0 39.0319 39.0319 0 87.0007 0C103.672 0 119.902 4.76169 133.933 13.7536C136.693 15.5262 137.492 19.1959 135.728 21.9475C133.957 24.7005 130.279 25.5072 127.534 23.736C115.41 15.9766 101.403 11.8637 87.0007 11.8637C45.572 11.8637 11.8637 45.572 11.8637 87.0007C11.8637 128.428 45.572 162.136 87.0007 162.136C128.428 162.136 162.136 128.428 162.136 87.0007C162.136 84.5243 162.018 82.0725 161.789 79.6612C161.473 76.4028 163.861 73.4991 167.127 73.1907C170.362 72.7721 173.28 75.263 173.597 78.5215C173.865 81.3136 174 84.1376 174 87.0007C174 134.97 134.97 174 87.0007 174V174Z" fill="black"/>
<path d="M96.6872 107C95.1634 107 93.6381 106.421 92.4792 105.258L56.7448 69.6174C54.4184 67.2956 54.4184 63.5337 56.7448 61.2133C59.0713 58.8929 62.8431 58.8929 65.1695 61.2133L96.6959 92.6572L179.829 9.74028C182.157 7.41991 185.929 7.41991 188.255 9.74028C190.582 12.0606 190.582 15.8225 188.255 18.1429L100.904 105.266C99.7363 106.421 98.2125 107 96.6872 107V107Z" fill="black"/>
</svg>
